<svg id="Camada_1" data-name="Camada 1" xmlns="http://www.w3.org/2000/svg" viewBox="0 0 19.22 23"><title>person</title><g id="Ellipse_15" data-name="Ellipse 15"><path d="M9.53,10.43a5.22,5.22,0,1,1,5.21-5.21A5.22,5.22,0,0,1,9.53,10.43ZM9.53,1a4.22,4.22,0,1,0,4.21,4.22A4.22,4.22,0,0,0,9.53,1Z"/></g><g id="Path_78" data-name="Path 78"><path d="M18.71,23h0a.5.5,0,0,1-.5-.5A8.62,8.62,0,0,0,9.7,13.8H9.61A8.62,8.62,0,0,0,1,22.31v.19a.5.5,0,0,1-.5.5h0a.5.5,0,0,1-.5-.5v-.19a9.61,9.61,0,1,1,19.21.19A.5.5,0,0,1,18.71,23Z"/></g></svg>