<svg id="Camada_1" data-name="Camada 1" xmlns="http://www.w3.org/2000/svg" viewBox="0 0 18.49 22"><title>pin</title><path id="Subtraction_5" data-name="Subtraction 5" d="M9.24,0a9.25,9.25,0,0,1,9.25,9.23h0a8.92,8.92,0,0,1-.22,1.86,10,10,0,0,1-.62,1.79A10.91,10.91,0,0,1,15.5,16l-.13.14L9.7,21.8a.68.68,0,0,1-.95,0h0L3,16l-.32-.32v0l-.09-.09A9.5,9.5,0,0,1,.69,12.69,9,9,0,0,1,0,9.24,9.24,9.24,0,0,1,9.23,0Zm0,20.71a.67.67,0,0,0,.47-.2l4.94-4.87.13-.14a10,10,0,0,0,2-2.82A8.93,8.93,0,0,0,17.4,11a7.1,7.1,0,0,0,.21-1.72A8.06,8.06,0,0,0,17,6.11a8.19,8.19,0,0,0-1.79-2.63,8.41,8.41,0,0,0-11.83,0,8.21,8.21,0,0,0-1.8,2.63,8.12,8.12,0,0,0,.08,6.55,8.53,8.53,0,0,0,1.94,2.71l5.2,5.15A.71.71,0,0,0,9.23,20.71Z" transform="translate(0 0)"/><circle cx="9.46" cy="9.02" r="3.9" style="fill:none"/><path d="M9.47,12.92A3.9,3.9,0,1,1,13.36,9,3.91,3.91,0,0,1,9.47,12.92Zm0-6.8A2.9,2.9,0,1,0,12.36,9,2.9,2.9,0,0,0,9.47,6.12Z" transform="translate(0 0)"/></svg>